<svg width="28" height="28" viewBox="0 0 28 28" fill="none" xmlns="http://www.w3.org/2000/svg">
<path d="M15.1667 3.5C12.3819 3.5 9.71118 4.60625 7.74205 6.57538C5.77292 8.54451 4.66667 11.2152 4.66667 14H1.16667L5.705 18.5383L5.78667 18.7017L10.5 14H7C7 9.485 10.6517 5.83333 15.1667 5.83333C19.6817 5.83333 23.3333 9.485 23.3333 14C23.3333 18.515 19.6817 22.1667 15.1667 22.1667C12.915 22.1667 10.8733 21.245 9.40334 19.7633L7.74667 21.42C8.71899 22.3977 9.87524 23.1732 11.1487 23.7018C12.4223 24.2304 13.7878 24.5017 15.1667 24.5C17.9514 24.5 20.6222 23.3938 22.5913 21.4246C24.5604 19.4555 25.6667 16.7848 25.6667 14C25.6667 11.2152 24.5604 8.54451 22.5913 6.57538C20.6222 4.60625 17.9514 3.5 15.1667 3.5ZM14 9.33333V15.1667L18.9933 18.13L19.8333 16.7183L15.75 14.2917V9.33333H14Z" fill="#A8B1AC" fill-opacity="0.8"/>
</svg>
