<svg width="28" height="28" viewBox="0 0 28 28" fill="none" xmlns="http://www.w3.org/2000/svg">
<path d="M13.8125 2C7.28846 2 2 7.28846 2 13.8125C2 20.3365 7.28846 25.625 13.8125 25.625C20.3365 25.625 25.625 20.3365 25.625 13.8125C25.625 7.28846 20.3365 2 13.8125 2Z" stroke="black" stroke-width="1.5" stroke-linecap="round" stroke-linejoin="round"/>
<path d="M4.68262 21.3087C4.68262 21.3087 7.31562 17.9469 13.8125 17.9469C20.3094 17.9469 22.9436 21.3087 22.9436 21.3087M13.8125 13.8125C14.7524 13.8125 15.6537 13.4391 16.3183 12.7746C16.9829 12.11 17.3562 11.2086 17.3562 10.2688C17.3562 9.3289 16.9829 8.42753 16.3183 7.76295C15.6537 7.09836 14.7524 6.72501 13.8125 6.72501C12.8726 6.72501 11.9713 7.09836 11.3067 7.76295C10.6421 8.42753 10.2687 9.3289 10.2687 10.2688C10.2687 11.2086 10.6421 12.11 11.3067 12.7746C11.9713 13.4391 12.8726 13.8125 13.8125 13.8125Z" stroke="black" stroke-width="1.5" stroke-linecap="round" stroke-linejoin="round"/>
</svg>
